<?xml version="1.0" encoding="UTF-8"?><svg id="uuid-ec489c01-d0b9-4dd5-8bfa-e18b3ee7d92b" xmlns="http://www.w3.org/2000/svg" viewBox="0 0 668.21 200"><defs><style>.uuid-38120e9d-1e22-487b-9288-4ce415466b15{fill:#e91d25;}.uuid-085170a5-0be2-41a6-8e4b-b7f06575bbfe{fill:#231f20;}</style></defs><g><path class="uuid-085170a5-0be2-41a6-8e4b-b7f06575bbfe" d="M180.72,162.26c-9.84,0-17.78-2.7-23.82-8.11-6.04-5.4-9.06-13.97-9.06-25.7v-55.71h23.32v51.74c0,5.75,1.34,9.95,4.03,12.59,2.68,2.65,6.65,3.97,11.91,3.97s9.84-1.61,13.08-4.83c3.24-3.22,4.87-8.33,4.87-15.35v-48.12h23.32v87.44h-22.65v-10c-5.93,8.05-14.26,12.07-25,12.07Z"/><path class="uuid-085170a5-0be2-41a6-8e4b-b7f06575bbfe" d="M253.52,160.19V37.74h23.32v45.53c2.91-3.91,6.51-6.99,10.82-9.23,4.3-2.24,9.37-3.36,15.18-3.36,11.63,0,20.89,3.94,27.76,11.81,6.88,7.88,10.32,19.17,10.32,33.89s-3.44,26.04-10.32,33.98-16.13,11.9-27.76,11.9c-6.15,0-11.47-1.24-15.94-3.71-4.47-2.47-8.17-5.83-11.07-10.09v11.73h-22.31Zm42.95-19.14c6.48,0,11.58-2.07,15.27-6.21,3.69-4.14,5.54-10.29,5.54-18.45s-1.84-14.29-5.54-18.37c-3.69-4.08-8.78-6.12-15.27-6.12s-11.55,2.04-15.18,6.12c-3.64,4.08-5.45,10.21-5.45,18.37s1.82,14.32,5.45,18.45c3.63,4.14,8.69,6.21,15.18,6.21Z"/><path class="uuid-085170a5-0be2-41a6-8e4b-b7f06575bbfe" d="M347.13,160.19l31.71-43.98-30.7-43.46h27.85l18.45,26.73,18.62-26.73h25.67l-30.7,43.29,31.71,44.15h-28.02l-19.46-27.42-19.12,27.42h-26Z"/><path class="uuid-38120e9d-1e22-487b-9288-4ce415466b15" d="M452.48,160.19V37.74h23.32v122.46h-23.32Z"/><path class="uuid-38120e9d-1e22-487b-9288-4ce415466b15" d="M498.45,61.02v-23.28h25v23.28h-25Zm.84,99.17V72.75h23.32v87.44h-23.32Z"/><path class="uuid-38120e9d-1e22-487b-9288-4ce415466b15" d="M546.09,160.19V37.74h23.32v45.53c2.91-3.91,6.51-6.99,10.82-9.23,4.3-2.24,9.37-3.36,15.18-3.36,11.63,0,20.89,3.94,27.76,11.81,6.88,7.88,10.32,19.17,10.32,33.89s-3.44,26.04-10.32,33.98-16.13,11.9-27.76,11.9c-6.15,0-11.47-1.24-15.94-3.71-4.47-2.47-8.17-5.83-11.07-10.09v11.73h-22.31Zm42.95-19.14c6.48,0,11.58-2.07,15.27-6.21,3.69-4.14,5.54-10.29,5.54-18.45s-1.85-14.29-5.54-18.37c-3.69-4.08-8.78-6.12-15.27-6.12s-11.55,2.04-15.18,6.12c-3.64,4.08-5.45,10.21-5.45,18.37s1.82,14.32,5.45,18.45c3.63,4.14,8.7,6.21,15.18,6.21Z"/></g><path class="uuid-085170a5-0be2-41a6-8e4b-b7f06575bbfe" d="M41.69,162.26l5.04-22.4h-12.02v-14.98h15.28l6.97-30.56h-12.02v-14.98h15.28l5.04-22.4h17.21l-5.04,22.4h16.76l5.04-22.4h17.21l-5.04,22.4h12.02v14.98h-15.28l-6.97,30.56h12.02v14.98h-15.28l-5.04,22.4h-17.21l5.04-22.4h-16.76l-5.04,22.4h-17.21Zm25.52-37.39h16.76l6.97-30.56h-16.76l-6.97,30.56Z"/></svg>